name C:\Users\u0101727\Documents\MyRepositories\upper-imu-dc\Results\main_mocap_tracking\Case_3\kinematics.mot
datacolumns 15
datarows 12
range 1.00000000 1.11000000
endheader 
time	ground_thorax_rot_x	ground_thorax_rot_y	ground_thorax_rot_z	clav_prot	clav_elev	scapula_abduction	scapula_elevation	scapula_upward_rot	scapula_winging	plane_elv	shoulder_elv	axial_rot	elbow_flexion	pro_sup	
          1.00000000	          1.45839788	         -5.95183971	        -10.46982969	        -20.64549675	         -7.57110619	         -8.02159302	         -6.60719637	         13.67235138	          6.29889081	         35.71226184	         27.37774443	        -12.27403518	          0.00000000	         34.32000000	
          1.01000000	          1.43393755	         -5.95448872	        -10.49865347	        -20.64052039	         -7.56843456	         -7.88154186	         -6.66226610	         13.89814477	          6.24545122	         36.97345247	         28.04231649	        -14.17527784	          0.00000000	         34.32000000	
          1.02000000	          1.41474455	         -5.96002547	        -10.52764417	        -20.63027335	         -7.55526222	         -7.72441704	         -6.71282287	         14.14018210	          6.18328121	         38.18983230	         28.70677224	        -16.07015365	          0.00000000	         34.32000000	
          1.03000000	          1.40019097	         -5.97079354	        -10.55584416	        -20.61228120	         -7.53266232	         -7.54488853	         -6.75978042	         14.39959521	          6.11225038	         39.36933755	         29.36953278	        -17.92843759	          0.00000000	         34.32000000	
          1.04000000	          1.38915483	         -5.98864162	        -10.58239286	        -20.58537412	         -7.50161505	         -7.33943039	         -6.80425331	         14.67831249	          6.03216307	         40.52419006	         30.02778631	        -19.72078942	          0.00000000	         34.32000000	
          1.05000000	          1.38011587	         -6.01461899	        -10.60664287	        -20.54932706	         -7.46294183	         -7.10627524	         -6.84724443	         14.97810286	          5.94290708	         41.66629185	         30.67802519	        -21.42019142	          0.00000000	         34.32000000	
          1.06000000	          1.37147278	         -6.04870190	        -10.62811514	        -20.50462201	         -7.41720925	         -6.84539416	         -6.88939958	         15.29994757	          5.84452845	         42.80313867	         31.31681596	        -23.00144874	          0.00000000	         34.32000000	
          1.07000000	          1.36198188	         -6.08961514	        -10.64644608	        -20.45253951	         -7.36479070	         -6.55865468	         -6.93105769	         15.64402650	          5.73727120	         43.93580379	         31.94184967	        -24.44672161	          0.00000000	         34.32000000	
          1.08000000	          1.35087828	         -6.13537462	        -10.66154527	        -20.39469549	         -7.30653474	         -6.24888210	         -6.97274587	         16.00973678	          5.62180419	         45.05842948	         32.55283524	        -25.75106339	          0.00000000	         34.32000000	
          1.09000000	          1.33770595	         -6.18444992	        -10.67392406	        -20.33180989	         -7.24457485	         -5.91779685	         -7.01564437	         16.39532297	          5.49950610	         46.15871217	         33.15184708	        -26.92022130	          0.00000000	         34.32000000	
          1.10000000	          1.32220391	         -6.23640361	        -10.68475671	        -20.26297544	         -7.18206372	         -5.56496196	         -7.06128380	         16.79762578	          5.37232192	         47.22060333	         33.74285492	        -27.96439596	          0.00000000	         34.32000000	
          1.11000000	          1.30430487	         -6.29131777	        -10.69541611	        -20.18648752	         -7.12157879	         -5.18918836	         -7.11051761	         17.21267430	          5.24204682	         48.22994487	         34.33038593	        -28.89391101	          0.00000000	         34.32000000	
